<svg xmlns="http://www.w3.org/2000/svg" viewBox="0 0 529.16 537.98"><defs><style>.cls-1{fill:#75d1d1;}.cls-2{fill:#31afac;}.cls-3{opacity:0.2;}.cls-4{fill:#191a23;}.cls-5{fill:#c6db28;}.cls-6,.cls-7{fill:#fff;}.cls-6{opacity:0.25;}.cls-8{opacity:0.1;}</style></defs><g id="Layer_2" data-name="Layer 2"><g id="Layer_1-2" data-name="Layer 1"><path class="cls-1" d="M371.51,79.84c85.42,65,186.57,205.3,134,319-55.86,120.84-260.15,156.91-383,76.26C-33.35,372.74-32.36,99.42,79.57,23.22,162.82-33.46,299,24.65,371.51,79.84Z"/><path class="cls-2" d="M306.62,536.61a4,4,0,0,1-6.8-3.67c6.68-24.05,12.91-65.56-6.77-107.15a136.17,136.17,0,0,0-11.39-19.63l67.75-59.48a111.88,111.88,0,0,1,27.08,16.88c.93.79,8.72,7.42,12,12C405.6,399.45,370.21,464.21,306.62,536.61Z"/><g class="cls-3"><path class="cls-4" d="M306.62,536.61a4,4,0,0,1-6.8-3.67c6.68-24.05,12.91-65.56-6.77-107.15a136.17,136.17,0,0,0-11.39-19.63l67.75-59.48a111.88,111.88,0,0,1,27.08,16.88c.93.79,8.72,7.42,12,12C405.6,399.45,370.21,464.21,306.62,536.61Z"/></g><path class="cls-2" d="M64.88,294.86a4,4,0,0,0,3.67,6.81c24-6.68,65.55-12.92,107.15,6.77a136.69,136.69,0,0,1,19.63,11.38l59.47-67.75A111.22,111.22,0,0,0,237.92,225c-.79-.94-7.42-8.72-12-12C202,195.89,137.27,231.28,64.88,294.86Z"/><path class="cls-5" d="M149.11,354.09A294.47,294.47,0,0,0,102,425.74c-18.43,39.91-22.9,74.31-24,94.75,19.81,0,55.15-2.71,96.63-20.94a277.68,277.68,0,0,0,71.56-46Z"/><path class="cls-6" d="M176.69,326.51a294.46,294.46,0,0,0-47.09,71.65c-18.42,39.91-22.89,74.31-24,94.76,19.81,0,55.15-2.71,96.63-20.95a277.15,277.15,0,0,0,71.56-46Z"/><path class="cls-7" d="M237.59,452.81a15.79,15.79,0,0,1-11-4.72l-73.15-73.16c-5.77-5.77-6.36-14.47-1.35-19.85L371,105.78C382.38,93.64,399,86,420.49,82.93h0l4.64-.6,0,0a159.37,159.37,0,0,1,16.93-.87,203.15,203.15,0,0,1,32,2.65l25.79,4.13a16.2,16.2,0,0,1,8.56,4.37,16,16,0,0,1,4.73,8.92l4.14,25.79c2.92,18.25,3.43,36,1.48,51.45v.53l-.11.35c-2.91,22.12-10.66,39.22-23,50.86L246.41,449.45A13,13,0,0,1,237.59,452.81Z"/><path class="cls-4" d="M442.1,87a198,198,0,0,1,31.17,2.58l25.79,4.13a10.88,10.88,0,0,1,8.74,8.74l4.12,25.78c2.61,16.26,3.53,33.85,1.43,50.21,0,0,0,.06,0,.08-2.43,18.93-8.88,36.24-21.41,48l-10.19,8.95-239,209.9a7.41,7.41,0,0,1-5.13,1.94,10.26,10.26,0,0,1-7.14-3.11L157.3,371c-3.66-3.65-4.17-9.1-1.17-12.27L366,119.74,375,109.55c11.8-12.53,29.13-19,48.09-21.41h0a149.76,149.76,0,0,1,19-1.16m0-11v0h0c-5.14,0-10.16.22-15,.65l-.09-.09-5.35.68-.8.11-2.92.37-.05.06C396,81.14,378.92,89.3,367,102l-.13.14-.13.15-8.94,10.19L148,351.39c-7,7.57-6.31,19.57,1.55,27.43L222.68,452a21.33,21.33,0,0,0,14.91,6.33,18.37,18.37,0,0,0,12.49-4.77L489,243.73l10.18-8.94.15-.12.13-.13C512.68,222.12,521,204.1,524.11,181l.23-.69v-1.13c2-15.86,1.43-34.06-1.55-52.69l-4.13-25.78a21.88,21.88,0,0,0-17.81-17.85L475,78.7A208.41,208.41,0,0,0,442.11,76Z"/><path class="cls-2" d="M487,233.89c-.78-.39-1.56-.8-2.35-1.22a240.7,240.7,0,0,1-21-12.55,297.68,297.68,0,0,1-45.09-37.21,289,289,0,0,1-43.28-54.64c-2.26-3.74-4.45-7.6-6.48-11.45-.42-.79-.83-1.57-1.22-2.35l-1.67-3.31,8.8-10,.17-.17c.37-.38.73-.76,1.11-1.14,11.93-11.93,29.47-19,52.14-21h0a147.44,147.44,0,0,1,17-.94,197.71,197.71,0,0,1,33.12,2.94l25.07,4.31a16.23,16.23,0,0,1,13,13l4.3,25.07c3,17.76,3.74,35,2,50v.55l-.09.28c-2.18,23.18-9.66,40.91-22.25,52.73l-.14.13-9.95,8.72Z"/><path class="cls-4" d="M445.18,83.32a192.93,192.93,0,0,1,32.19,2.86l25.07,4.31A10.85,10.85,0,0,1,511,99.05l4.3,25.06c2.7,15.81,3.8,32.87,2,48.73,0,0,0,0,0,.07-1.77,19.67-7.82,37.8-20.59,49.8L489.49,229l-2.26-1.17a233.19,233.19,0,0,1-20.52-12.27A291.77,291.77,0,0,1,422.46,179,285.78,285.78,0,0,1,380,125.43c-2.26-3.74-4.37-7.48-6.33-11.18-.4-.76-.79-1.5-1.17-2.25l6.28-7.17c.37-.38.73-.76,1.11-1.14,12-12,29.64-17.74,48.74-19.45h0a143,143,0,0,1,16.53-.92m0-11v0h0a153.15,153.15,0,0,0-17.6,1c-23.95,2.15-42.61,9.77-55.47,22.62-.4.41-.8.81-1.19,1.23l-.08.07-.17.19-.17.18-6.27,7.17-4.89,5.57,3.34,6.62c.41.82.83,1.63,1.27,2.46,2.08,3.94,4.32,7.89,6.65,11.73a294.2,294.2,0,0,0,44.08,55.67,303.18,303.18,0,0,0,45.93,37.9,246.29,246.29,0,0,0,21.48,12.84c.82.43,1.63.86,2.45,1.27l6.62,3.33,5.57-4.88L503.9,231l.14-.13.14-.13c13.48-12.66,21.52-31.36,23.9-55.62l.18-.57v-1.1c1.72-15.37,1-33.05-2.11-51.17l-4.3-25.06A21.83,21.83,0,0,0,504.3,79.65l-25.07-4.31a203.53,203.53,0,0,0-34.05-3Z"/><g class="cls-8"><path class="cls-4" d="M385.78,300.24c7.72-18,11.36-32.85,11.15-45.28a51.49,51.49,0,0,0-50.41-50.41c-12.43-.21-27.24,3.44-45.27,11.15A278,278,0,0,0,275,228.76l-123.89,135c-2.45,2.67-1,8.19,3.24,12.45l71,71c4.25,4.26,9.77,5.7,12.44,3.25l135-123.89A273.22,273.22,0,0,0,385.78,300.24Z"/></g><path class="cls-2" d="M362.65,283A44.12,44.12,0,1,1,393.85,270,43.83,43.83,0,0,1,362.65,283Z"/><path class="cls-4" d="M362.65,200.21a38.62,38.62,0,1,1-27.31,11.31,38.49,38.49,0,0,1,27.31-11.31m0-11a49.62,49.62,0,1,0,35.09,14.53,49.29,49.29,0,0,0-35.09-14.53Z"/><path class="cls-2" d="M239,362.52c7.38,7.39-1,28.29-19.1,50.69a210.63,210.63,0,0,1-14.66,16.25,206.06,206.06,0,0,1-16.56,14.9c-22.28,17.93-43,26.21-50.38,18.86-5.87-5.87-1.76-20.31,9.27-37.24a201.18,201.18,0,0,1,53.89-54C218.48,360.8,233.05,356.62,239,362.52Z"/><g class="cls-3"><path class="cls-4" d="M205.2,429.46a206.06,206.06,0,0,1-16.56,14.9c-22.28,17.93-43,26.21-50.38,18.86a3.39,3.39,0,0,1-.31-.34L238.62,362.21a3.39,3.39,0,0,1,.34.31c7.38,7.38-1,28.29-19.1,50.69A208.59,208.59,0,0,1,205.2,429.46Z"/></g><g class="cls-8"><path class="cls-4" d="M491.93,226.52l-10.19,8.95-239,209.9c-3.18,3-8.62,2.47-12.27-1.17l-36.71-36.71L504.66,96.57a10.69,10.69,0,0,1,3.14,5.86l4.12,25.78c2.61,16.26,3.53,33.85,1.43,50.21,0,0,0,.06,0,.08C510.91,197.43,504.46,214.74,491.93,226.52Z"/></g></g></g></svg>