<svg xmlns="http://www.w3.org/2000/svg" viewBox="0 0 559.17 518.29"><defs><style>.cls-1{fill:#75d1d1;}.cls-2{fill:#3f2b3f;}.cls-3{fill:#191a23;}.cls-4,.cls-8{fill:#fff;}.cls-5{opacity:0.1;}.cls-6{fill:#31afac;}.cls-10,.cls-7{fill:none;stroke:#191a23;stroke-miterlimit:10;stroke-width:11px;}.cls-7{stroke-linecap:round;}.cls-8{opacity:0.25;}.cls-9{opacity:0.2;}.cls-11{fill:#c6db28;}</style></defs><g id="Layer_2" data-name="Layer 2"><g id="Layer_1-2" data-name="Layer 1"><path class="cls-1" d="M187.66,79.84c-85.42,65-186.57,205.3-134,319,55.86,120.84,260.14,156.91,383,76.26,155.88-102.33,154.89-375.65,43-451.85C396.35-33.46,260.16,24.65,187.66,79.84Z"/><path class="cls-2" d="M417.38,277.76V220.89h18.77A11.88,11.88,0,0,1,448,232.76v33.13a11.88,11.88,0,0,1-11.86,11.87Z"/><path class="cls-3" d="M436.15,226.39a6.37,6.37,0,0,1,6.36,6.37v33.13a6.37,6.37,0,0,1-6.36,6.37H422.88V226.39h13.27m0-11H411.88v67.87h24.27a17.38,17.38,0,0,0,17.36-17.37V232.76a17.38,17.38,0,0,0-17.36-17.37Z"/><path class="cls-4" d="M392.65,303.43V195.35h12.2a28.25,28.25,0,0,1,28.22,28.22v51.64a28.25,28.25,0,0,1-28.22,28.22Z"/><path class="cls-3" d="M404.85,200.85a22.72,22.72,0,0,1,22.72,22.72v51.64a22.72,22.72,0,0,1-22.72,22.72h-6.7V200.85h6.7m0-11h-17.7V308.93h17.7a33.76,33.76,0,0,0,33.72-33.72V223.57a33.75,33.75,0,0,0-33.72-33.72Z"/><path class="cls-2" d="M17.36,277.76A11.88,11.88,0,0,1,5.5,265.89V232.76a11.88,11.88,0,0,1,11.86-11.87H36.13v56.87Z"/><path class="cls-3" d="M30.63,226.39v45.87H17.36A6.37,6.37,0,0,1,11,265.89V232.76a6.37,6.37,0,0,1,6.36-6.37H30.63m11-11H17.36A17.38,17.38,0,0,0,0,232.76v33.13a17.38,17.38,0,0,0,17.36,17.37H41.63V215.39Z"/><path class="cls-4" d="M48.66,303.43a28.25,28.25,0,0,1-28.22-28.22V223.57a28.25,28.25,0,0,1,28.22-28.22H60.87V303.43Z"/><path class="cls-3" d="M55.37,200.85v97.08H48.66a22.72,22.72,0,0,1-22.72-22.72V223.57a22.72,22.72,0,0,1,22.72-22.72h6.71m11-11H48.66a33.75,33.75,0,0,0-33.72,33.72v51.64a33.76,33.76,0,0,0,33.72,33.72H66.37V189.85Z"/><path class="cls-4" d="M226.76,440.81c-54.6,0-101.22-18.77-134.85-54.28-33.07-34.93-50.55-82.7-50.55-138.15,0-54.5,17.56-99.71,50.79-130.76,32.5-30.37,79-46.42,134.61-46.42s102.1,16,134.6,46.42c33.23,31,50.79,76.26,50.79,130.76,0,55.45-17.48,103.22-50.55,138.15C328,422,281.35,440.81,226.76,440.81Z"/><path class="cls-3" d="M226.76,76.7c109.07,0,179.89,62.61,179.89,171.68S335.83,435.31,226.76,435.31,46.86,357.45,46.86,248.38,117.68,76.7,226.76,76.7m0-11c-117.75,0-190.9,70-190.9,182.68,0,28.23,4.52,54.81,13.45,79a182.53,182.53,0,0,0,38.61,62.9,172.88,172.88,0,0,0,60.54,41.31c23.8,9.75,50.14,14.69,78.3,14.69s54.49-4.94,78.29-14.69a172.88,172.88,0,0,0,60.54-41.31,182.53,182.53,0,0,0,38.61-62.9c8.93-24.22,13.45-50.8,13.45-79C417.65,135.7,344.5,65.7,226.76,65.7Z"/><g class="cls-5"><path class="cls-3" d="M226.76,411.85c-105.11,0-174.69-72.31-179.61-175.17-.19,3.84-.29,7.73-.29,11.7,0,109.07,70.82,186.93,179.9,186.93s179.89-77.86,179.89-186.93c0-4-.1-7.86-.29-11.7C401.44,339.54,331.86,411.85,226.76,411.85Z"/></g><g class="cls-5"><path class="cls-3" d="M181.54,328.67h0A113.62,113.62,0,0,1,81.13,240.55l-3.37-15A68.85,68.85,0,0,1,124.6,143h0a352.49,352.49,0,0,1,204.31,0h0a68.85,68.85,0,0,1,46.84,82.61l-3.37,15A113.62,113.62,0,0,1,272,328.67h0A493.07,493.07,0,0,1,181.54,328.67Z"/></g><path class="cls-6" d="M181.54,353.69h0A113.6,113.6,0,0,1,81.13,265.57l-3.37-15A68.85,68.85,0,0,1,124.6,168h0a352.49,352.49,0,0,1,204.31,0h0a68.85,68.85,0,0,1,46.84,82.61l-3.37,15A113.6,113.6,0,0,1,272,353.69h0A493.07,493.07,0,0,1,181.54,353.69Z"/><path class="cls-7" d="M141.61,326.48a99.2,99.2,0,0,1-46.74-64l-3.42-15.14"/><path class="cls-7" d="M292,335.35a99.64,99.64,0,0,1-21.33,4.32"/><path class="cls-7" d="M353.9,277.74a99.18,99.18,0,0,1-38.37,46.52"/><path class="cls-7" d="M260.85,168.65a338.34,338.34,0,0,1,43.35,7.26"/><ellipse class="cls-8" cx="226.76" cy="195.07" rx="57.66" ry="32.76"/><g class="cls-9"><path class="cls-3" d="M375.75,227.13l-3.37,15A113.61,113.61,0,0,1,272,330.23h0a493.07,493.07,0,0,1-90.43,0h0A113.61,113.61,0,0,1,81.13,242.1l-3.37-15c-.42-1.67-.75-3.35-1-5a68.38,68.38,0,0,0,1,28.48l3.37,15a113.6,113.6,0,0,0,100.41,88.12h0a493.07,493.07,0,0,0,90.43,0h0a113.6,113.6,0,0,0,100.41-88.12l3.37-15a68.38,68.38,0,0,0,1-28.48C376.5,223.78,376.17,225.46,375.75,227.13Z"/></g><line class="cls-10" x1="436.15" y1="226.39" x2="436.15" y2="103.32"/><path class="cls-11" d="M436.15,118.74a15.16,15.16,0,1,1,15.15-15.15A15.17,15.17,0,0,1,436.15,118.74Z"/><path class="cls-3" d="M436.15,93.93a9.66,9.66,0,1,1-9.66,9.66,9.65,9.65,0,0,1,9.66-9.66m0-11a20.66,20.66,0,1,0,20.65,20.66,20.69,20.69,0,0,0-20.65-20.66Z"/></g></g></svg>