<svg xmlns="http://www.w3.org/2000/svg" viewBox="0 0 667.38 576.98"><defs><style>.cls-1{fill:#75d1d1;}.cls-2{fill:#c6db28;}.cls-3{fill:#191a23;}.cls-4{fill:#dbdbdb;}.cls-4,.cls-6,.cls-7{stroke:#000302;stroke-linecap:round;stroke-linejoin:round;stroke-width:11px;}.cls-5{fill:#31afac;}.cls-6{fill:none;}.cls-7{fill:#fff;}.cls-8{opacity:0.1;}</style></defs><g id="Layer_2" data-name="Layer 2"><g id="Layer_1-2" data-name="Layer 1"><path class="cls-1" d="M502.37,203.75C436.49,118.8,295.14,18.78,181.8,72.41,61.3,129.42,27,334.29,108.86,456.58c103.86,155.16,377.52,151.73,452.81,39C617.68,411.7,558.28,275.85,502.37,203.75Z"/><path class="cls-2" d="M333.32,35.81a15.16,15.16,0,1,1,15.15-15.16A15.18,15.18,0,0,1,333.32,35.81Z"/><path class="cls-3" d="M333.31,11a9.66,9.66,0,1,1-9.65,9.65A9.65,9.65,0,0,1,333.31,11m0-11A20.66,20.66,0,1,0,354,20.65,20.68,20.68,0,0,0,333.31,0Z"/><line class="cls-4" x1="333.31" y1="49.63" x2="259.32" y2="120.68"/><line class="cls-4" x1="333.31" y1="49.63" x2="333.31" y2="120.68"/><line class="cls-4" x1="333.31" y1="49.63" x2="407.31" y2="120.68"/><rect class="cls-5" x="5.5" y="324.27" width="262.47" height="120.46"/><rect class="cls-1" x="97.54" y="324.27" width="78.49" height="52.98"/><rect class="cls-1" x="10.28" y="387.63" width="78.49" height="52.98"/><rect class="cls-1" x="185.24" y="386.5" width="78.49" height="52.98"/><rect class="cls-6" x="5.5" y="319.74" width="262.47" height="124.98"/><line class="cls-6" x1="92.99" y1="319.74" x2="92.99" y2="444.73"/><line class="cls-6" x1="180.48" y1="319.74" x2="180.48" y2="444.73"/><line class="cls-6" x1="5.5" y1="382.24" x2="399.83" y2="382.24"/><rect class="cls-5" x="399.41" y="324.27" width="262.47" height="120.46"/><rect class="cls-1" x="491.45" y="324.27" width="78.49" height="52.98"/><rect class="cls-1" x="404.19" y="387.63" width="78.49" height="52.98"/><rect class="cls-1" x="579.15" y="386.5" width="78.49" height="52.98"/><rect class="cls-6" x="399.41" y="319.74" width="262.47" height="124.98"/><line class="cls-6" x1="486.9" y1="319.74" x2="486.9" y2="444.73"/><line class="cls-6" x1="574.39" y1="319.74" x2="574.39" y2="444.73"/><line class="cls-6" x1="399.41" y1="382.24" x2="661.88" y2="382.24"/><path class="cls-7" d="M379.21,243.85V525.6a19,19,0,0,1-19,19H306.38a19,19,0,0,1-19-19V243.85a19,19,0,0,1,19-19h53.86A19,19,0,0,1,379.21,243.85Z"/><path class="cls-7" d="M427.3,117.12a94,94,0,1,1-188,0Z"/><g class="cls-8"><path class="cls-3" d="M379.21,504.57v21a19,19,0,0,1-19,19H306.38a19,19,0,0,1-19-19v-21Z"/></g><g class="cls-8"><path class="cls-3" d="M427.3,117.62a94,94,0,1,1-188,0h14a81,81,0,0,0,159,0Z"/></g></g></g></svg>