<svg xmlns="http://www.w3.org/2000/svg" viewBox="0 0 520 542.21"><defs><style>.cls-1{fill:#75d1d1;}.cls-2{fill:#dbdbdb;stroke:#000302;stroke-linecap:round;stroke-linejoin:round;stroke-width:11px;}.cls-3{fill:#fff;}.cls-4{fill:#191a23;}.cls-5{opacity:0.32;}.cls-6{opacity:0.1;}.cls-7{fill:#c6db28;}</style></defs><g id="Layer_2" data-name="Layer 2"><g id="Layer_1-2" data-name="Layer 1"><path class="cls-1" d="M148.49,79.84c-85.42,65-186.57,205.3-134,319,55.86,120.84,260.15,156.91,383,76.26,155.88-102.33,154.89-375.65,43-451.85C357.18-33.46,221,24.65,148.49,79.84Z"/><line class="cls-2" x1="296.5" y1="277.62" x2="296.5" y2="421.73"/><line class="cls-2" x1="296.21" y1="392.6" x2="189.31" y2="536.71"/><line class="cls-2" x1="296.21" y1="392.6" x2="296.21" y2="536.71"/><line class="cls-2" x1="296.21" y1="392.6" x2="403.1" y2="536.71"/><path class="cls-3" d="M196,314.92a5.48,5.48,0,0,1-5-3.19l-20.18-43.57a5.48,5.48,0,0,1,2.4-7.16l33-17.62,51.84-27.7a5.53,5.53,0,0,1,2.59-.65,5.27,5.27,0,0,1,1.75.29,5.49,5.49,0,0,1,3.24,2.9l24.77,53.47a5.51,5.51,0,0,1-3,7.43L198,314.53A5.33,5.33,0,0,1,196,314.92Z"/><path class="cls-4" d="M260.64,220.53l12,25.84L285.41,274l-54.65,21.65L196,309.42l-9.84-21.24L175.8,265.85l33-17.62,51.84-27.7m0-11a11,11,0,0,0-5.18,1.3l-51.85,27.7-33,17.62a11,11,0,0,0-4.8,14.32l10.34,22.33L186,314a11,11,0,0,0,14,5.61l34.78-13.78,54.65-21.64a11,11,0,0,0,5.93-14.85l-12.8-27.63-12-25.84a11,11,0,0,0-10-6.38Z"/><g class="cls-5"><polygon class="cls-4" points="195.98 309.42 175.8 265.85 260.64 220.53 285.41 274 195.98 309.42"/></g><path class="cls-3" d="M236.75,314.07a5.5,5.5,0,0,1-5-3.19l-33.94-73.27a5.49,5.49,0,0,1,2.47-7.2l118.48-60.9a5.49,5.49,0,0,1,7.5,2.58l38.54,83.17a5.52,5.52,0,0,1-2.89,7.4l-123.06,51A5.4,5.4,0,0,1,236.75,314.07Z"/><path class="cls-4" d="M321.28,174.4l38.54,83.17-123.07,51L202.81,235.3l118.47-60.9m0-11a10.94,10.94,0,0,0-5,1.22L197.78,225.51a11,11,0,0,0-4.95,14.41l33.94,73.27A11,11,0,0,0,241,318.73l123.07-51A11,11,0,0,0,369.8,253l-38.53-83.17a11,11,0,0,0-10-6.38Z"/><g class="cls-6"><polygon class="cls-4" points="359.82 257.57 236.75 308.57 230.76 295.65 219.77 271.92 208.8 248.23 202.81 235.3 321.29 174.4 339.62 213.98 359.82 257.57"/></g><path class="cls-3" d="M322.59,299.56a5.5,5.5,0,0,1-5-3.19L264.39,181.51a5.48,5.48,0,0,1,2.06-7L426.26,74.06a5.45,5.45,0,0,1,2.92-.85,5.63,5.63,0,0,1,1.57.23,5.5,5.5,0,0,1,3.42,3l73.39,158.43a5.49,5.49,0,0,1-3.33,7.56l-180,56.92A5.62,5.62,0,0,1,322.59,299.56Z"/><path class="cls-4" d="M429.18,78.71l34.51,74.5,38.88,83.94-180,56.91L295.1,234.72,269.38,179.2,429.18,78.71m0-11a11,11,0,0,0-5.85,1.69L263.52,169.89a11,11,0,0,0-4.12,13.94l25.72,55.51,27.49,59.35a11,11,0,0,0,10,6.37,10.87,10.87,0,0,0,3.31-.51l180-56.92a11,11,0,0,0,6.66-15.11l-38.88-83.94-34.5-74.49a11,11,0,0,0-6.86-5.92,10.83,10.83,0,0,0-3.13-.46Z"/><circle class="cls-7" cx="296.5" cy="376.14" r="25.08"/><path class="cls-4" d="M296.5,356.56a19.58,19.58,0,1,1-19.58,19.58,19.58,19.58,0,0,1,19.58-19.58m0-11a30.58,30.58,0,1,0,30.58,30.58,30.61,30.61,0,0,0-30.58-30.58Z"/><g class="cls-6"><polygon class="cls-4" points="502.57 237.15 322.59 294.06 295.1 234.72 463.69 153.21 502.57 237.15"/></g><g class="cls-6"><polygon class="cls-4" points="314.4 276.39 236.75 308.57 230.76 295.65 195.98 309.42 186.14 288.18 219.77 271.92 272.61 246.37 295.39 235.36 314.4 276.39"/></g></g></g></svg>