<svg xmlns="http://www.w3.org/2000/svg" viewBox="0 0 654.49 518.29"><defs><style>.cls-1{fill:#75d1d1;}.cls-2,.cls-8{fill:#fff;}.cls-3{fill:#191a23;}.cls-4{fill:#31afac;}.cls-5{opacity:0.1;}.cls-6,.cls-9{fill:none;}.cls-6{stroke:#191a23;stroke-linecap:round;stroke-miterlimit:10;stroke-width:11px;}.cls-7{fill:#c6db28;}.cls-8{opacity:0.25;}</style></defs><g id="Layer_2" data-name="Layer 2"><g id="Layer_1-2" data-name="Layer 1"><path class="cls-1" d="M148.49,79.84c-85.42,65-186.57,205.3-134,319,55.86,120.84,260.15,156.91,383,76.26,155.88-102.33,154.89-375.65,43-451.85C357.18-33.46,221,24.65,148.49,79.84Z"/><path class="cls-2" d="M355.67,489.27A188.12,188.12,0,0,1,167.53,301.13c0-103.74,84.4-188.14,188.14-188.14a188.14,188.14,0,1,1,0,376.28Z"/><path class="cls-3" d="M355.67,118.49A182.65,182.65,0,1,1,173,301.13,182,182,0,0,1,355.67,118.49m0-11A193.66,193.66,0,1,0,543.56,348.12,193.77,193.77,0,0,0,431.74,123a192.48,192.48,0,0,0-76.07-15.51Z"/><path class="cls-4" d="M500.07,190.88a183.4,183.4,0,0,1,22.36,38.66c-2.6,8.15-6.36,13.93-11.75,15.25-23.67,5.83-51.48-24-73.63-7.27s5.23,38.82-27.79,48.18-7.45-63-22.86-83.46S342.25,207.47,317,190c-13.71-9.52-11.5-40.31-6.62-66.43A182.69,182.69,0,0,1,500.07,190.88Z"/><path class="cls-4" d="M509.93,396.45a182.9,182.9,0,0,1-170,86.5c-2.83-16.89-2.95-35.57,5.94-47.68,19.77-26.94,40.28-21,56.69-24s12.7-36.3,40-40.86C462.67,367,496.26,379.6,509.93,396.45Z"/><circle class="cls-4" cx="372.67" cy="363.62" r="16.53"/><path class="cls-4" d="M261.1,303.76s-1,40.87,22.3,41.1,43.14-9.47,46.09-38.63,28-45.12,18.3-58-62.55-29.67-72.82-13.8S261.1,303.76,261.1,303.76Z"/><path class="cls-4" d="M235.56,228.38c8.48-2.37,18.68-11.86,19.59-14.78s-.9-18.91-12-15.89-26,4.47-27.85,10.31S227.68,230.58,235.56,228.38Z"/><g class="cls-5"><path class="cls-3" d="M458.05,149.86A182.66,182.66,0,0,1,204.4,403.5,182.65,182.65,0,1,0,458.05,149.86Z"/></g><path class="cls-6" d="M267.6,431.8a158.81,158.81,0,0,1-32-28.66"/><path class="cls-6" d="M405.24,450.77a156.28,156.28,0,0,1-29.5,6.72,158.33,158.33,0,0,1-68.23-6.25"/><path class="cls-6" d="M524.15,216.93c47.6-4.5,79.84.83,85.44,17.07,11.2,32.48-88.38,96.3-222.43,142.54s-251.8,57.39-263,24.91c-4.88-14.14,11.22-34.21,42-56.18"/><path class="cls-7" d="M613.23,278A35.77,35.77,0,1,1,649,242.26,35.82,35.82,0,0,1,613.23,278Z"/><path class="cls-3" d="M613.23,212A30.27,30.27,0,1,1,583,242.26,30.26,30.26,0,0,1,613.23,212m0-11a41.27,41.27,0,1,0,41.26,41.26A41.31,41.31,0,0,0,613.23,201Z"/><g class="cls-5"><path class="cls-3" d="M631.17,216.57a31.28,31.28,0,0,1,5.89,18.29c0,17.12-13.58,31-30.32,31a29.7,29.7,0,0,1-17.9-6,30,30,0,0,0,24.43,12.7c16.74,0,30.32-13.88,30.32-31A31.13,31.13,0,0,0,631.17,216.57Z"/></g><ellipse class="cls-8" cx="405.59" cy="167.96" rx="28.03" ry="52.97" transform="translate(72.33 453.71) rotate(-63.11)"/><circle class="cls-9" cx="357.08" cy="300.08" r="183.48"/></g></g></svg>