<?xml version="1.0" encoding="utf-8"?>
<!-- Generator: Adobe Illustrator 24.3.0, SVG Export Plug-In . SVG Version: 6.00 Build 0)  -->
<svg version="1.1" id="Layer_1" xmlns="http://www.w3.org/2000/svg" xmlns:xlink="http://www.w3.org/1999/xlink" x="0px" y="0px"
	 viewBox="0 0 657.3 589.7" style="enable-background:new 0 0 657.3 589.7;" xml:space="preserve">
<style type="text/css">
	.st0{fill:#75D1D1;}
	.st1{fill:#C6DB28;}
	.st2{fill:#191A23;}
	.st3{fill:#FFFFFF;}
	.st4{opacity:0.25;fill:#FFFFFF;enable-background:new    ;}
	.st5{opacity:0.2;}
	.st6{fill:none;stroke:#191A23;stroke-width:11;stroke-linecap:round;stroke-linejoin:round;}
	.st7{fill:none;stroke:#191A23;stroke-width:11;stroke-linecap:round;stroke-miterlimit:10;}
</style>
<g id="Layer_2_1_">
	<g id="Layer_1-2">
		<path class="st0" d="M148.5,79.8c-85.4,65-186.6,205.3-134,319c55.9,120.8,260.2,156.9,383,76.3c155.9-102.3,154.9-375.6,43-451.9
			C357.2-33.5,221,24.6,148.5,79.8z"/>
		<polygon class="st1" points="476.4,589.7 320.4,589.7 351.2,263.8 445.7,263.8 		"/>
		<path class="st1" d="M398.4,431.8c-35,0-67.9-10.2-92.7-28.8c-25.3-18.9-39.2-44.2-39.2-71.2s13.9-52.3,39.2-71.2
			c24.8-18.6,57.8-28.8,92.7-28.8s67.9,10.2,92.7,28.8c25.3,18.9,39.3,44.2,39.3,71.2s-13.9,52.3-39.3,71.3
			C466.3,421.5,433.4,431.8,398.4,431.8z"/>
		<path class="st2" d="M398.4,237.2c69.9,0,126.5,42.3,126.5,94.5s-56.6,94.5-126.5,94.5S272,384,272,331.7S328.6,237.2,398.4,237.2
			 M398.5,226.2c-36.1,0-70.2,10.6-96,29.9c-12.8,9.6-23,20.9-30.1,33.4c-15.2,26.1-15.2,58.3,0,84.4c7.1,12.6,17.2,23.8,30.1,33.4
			c25.8,19.3,59.9,29.9,96,29.9s70.2-10.6,96-29.9c12.8-9.6,23-20.9,30.1-33.4c15.2-26.1,15.2-58.3,0-84.4
			c-7.1-12.6-17.2-23.8-30.1-33.4C468.7,236.8,434.6,226.2,398.5,226.2z"/>
		<path class="st3" d="M398.4,393.2c-26.1,0-52.1-1.3-78-4.1c-49.8-5.4-92.6-15.6-124-29.7c-33.6-15-51.4-33.5-51.4-53.4
			c0-16,11.8-31.4,34.1-44.6c20.4-12,49.7-22.3,84.7-29.6c40.2-8.5,86.7-13,134.5-13c47.3,0,93.4,4.4,133.3,12.7
			c35.3,7.3,64.9,17.6,85.6,29.7c22.6,13.2,34.5,28.7,34.5,44.8c0,20-17.9,38.5-51.8,53.6c-31.6,14.1-74.8,24.3-124.9,29.6
			C449.6,391.9,424,393.2,398.4,393.2z"/>
		<path class="st2" d="M398.4,224.4c48.6,0,93.9,4.6,132.2,12.6c69.5,14.5,115.7,40,115.7,69.1c0,36.4-72.1,67.2-171.8,77.7
			c-25.3,2.6-50.7,3.9-76.1,3.9c-25.9,0-51.7-1.3-77.4-4.1c-99-10.7-170.4-41.4-170.4-77.6c0-28.9,45.6-54.3,114.5-68.8
			C303.6,229.1,349.3,224.4,398.4,224.4 M398.4,213.4c-48.2,0-95.1,4.5-135.6,13.1c-35.6,7.5-65.4,18-86.4,30.3
			c-11.3,6.6-20.1,13.9-26.2,21.5c-7.1,8.8-10.6,18.1-10.6,27.8c0,28,29.7,47.2,54.6,58.4c31.9,14.3,75.3,24.7,125.6,30.1
			c26.1,2.8,52.4,4.2,78.6,4.1c25.8,0,51.6-1.3,77.2-4c50.7-5.4,94.4-15.8,126.6-30.1c25.1-11.2,55-30.4,55-58.6
			c0-9.7-3.6-19.1-10.7-27.9c-6.2-7.7-15.1-14.9-26.5-21.6c-21.2-12.4-51.3-22.9-87.2-30.3C492.6,217.8,446.1,213.4,398.4,213.4
			L398.4,213.4z"/>
		<path class="st0" d="M260.3,222.1c19.1-76.3,96.4-122.7,172.7-103.6c50.9,12.7,90.7,52.4,103.5,103.3l2.1,8.5l-8.6-1.8
			c-39.2-8.1-84.5-12.5-131-12.5c-47.1,0-92.8,4.4-132.2,12.7l-8.6,1.8L260.3,222.1z"/>
		<path class="st2" d="M398.5,119.7c62.7,0,117.4,42.6,132.7,103.4c-38.2-8-83.6-12.6-132.2-12.6c-49.1,0-94.9,4.7-133.4,12.8
			C280.9,162.5,335.7,119.7,398.5,119.7 M398.5,108.7c-67.9,0-127,46.2-143.5,112l-4.2,17l17.2-3.6c39.1-8.2,84.4-12.6,131.1-12.6
			c46.2,0,91.1,4.3,129.9,12.3l17.2,3.6l-4.3-17C525.4,154.7,466.3,108.6,398.5,108.7z"/>
		<path class="st4" d="M420.2,122.3c-48.9,9.7-88.6,45-103.9,92.4c-19.7,2.1-38.2,5.1-55.4,8.7C278.6,152.7,348.7,108.2,420.2,122.3
			z"/>
		<g class="st5">
			<path class="st2" d="M643.3,306c0,36.4-72.1,67.2-171.8,77.7c-25.3,2.6-50.7,3.9-76.1,3.9c-25.9,0-51.7-1.3-77.5-4.1
				c-99-10.7-170.4-41.4-170.4-77.6c83.5,12,167.7,17.9,252,17.7C481.1,323.5,562.6,317.6,643.3,306z"/>
		</g>
		<path class="st1" d="M167.5,164.9c-8.2,0-14.9-6.7-14.9-14.9c0-8.2,6.7-14.9,14.9-14.9c8.2,0,14.9,6.7,14.9,14.9l0,0
			C182.4,158.2,175.7,164.9,167.5,164.9z"/>
		<path class="st2" d="M167.5,140.6c5.2,0,9.4,4.2,9.4,9.4c0,5.2-4.2,9.4-9.4,9.4c-5.2,0-9.4-4.2-9.4-9.4
			C158.1,144.8,162.3,140.6,167.5,140.6C167.5,140.6,167.5,140.6,167.5,140.6 M167.5,129.6c-11.3,0-20.4,9.1-20.4,20.4
			c0,11.3,9.1,20.4,20.4,20.4c11.3,0,20.4-9.1,20.4-20.4l0,0C187.9,138.7,178.7,129.6,167.5,129.6L167.5,129.6z"/>
		<line class="st6" x1="177.3" y1="168.6" x2="211.9" y2="242.7"/>
		<path class="st1" d="M625.4,164.9c-8.2,0-14.9-6.7-14.9-14.9s6.7-14.9,14.9-14.9c8.2,0,14.9,6.7,14.9,14.9v0
			C640.3,158.2,633.7,164.9,625.4,164.9z"/>
		<path class="st2" d="M625.4,140.6c5.2,0,9.4,4.2,9.4,9.4c0,5.2-4.2,9.4-9.4,9.4c-5.2,0-9.4-4.2-9.4-9.4
			C616,144.8,620.2,140.6,625.4,140.6 M625.4,129.6c-11.3,0-20.4,9.2-20.4,20.4c0,11.3,9.2,20.4,20.4,20.4
			c11.3,0,20.4-9.1,20.4-20.4C645.8,138.7,636.7,129.6,625.4,129.6L625.4,129.6z"/>
		<line class="st6" x1="615.6" y1="168.6" x2="581" y2="242.7"/>
		<path class="st7" d="M466.7,170.5c5,5,9.5,10.6,13.3,16.5"/>
		<path class="st7" d="M389.3,142.4c20-1.9,40,2.5,57.4,12.6"/>
	</g>
</g>
</svg>
